solid SidSucksBlackDicks
facet normal -2.3332792027364996e-32 3.8858094546627215e-32 -1.0
  outer loop
    vertex 1.0222252113279582 55.76457135307565 185.0
    vertex 0.0 18.0 185.0
    vertex 0.0 48.0 185.0
  endloop
endfacet
facet normal -2.3332792027364996e-32 3.8858094546627215e-32 -1.0
  outer loop
    vertex 0.0 18.0 185.0
    vertex 1.0222252113279582 55.76457135307565 185.0
    vertex 30.0 18.0 185.0
  endloop
endfacet
facet normal -2.3332792027364996e-32 3.8858094546627215e-32 -1.0
  outer loop
    vertex 30.0 18.0 185.0
    vertex 1.0222252113279582 55.76457135307565 185.0
    vertex 4.019237886466849 63.00000000000002 185.0
  endloop
endfacet
facet normal -2.3332792027364996e-32 3.8858094546627215e-32 -1.0
  outer loop
    vertex 30.0 18.0 185.0
    vertex 4.019237886466849 63.00000000000002 185.0
    vertex 8.786796564403577 69.21320343559644 185.0
  endloop
endfacet
facet normal -2.3332792027364996e-32 3.8858094546627215e-32 -1.0
  outer loop
    vertex 30.0 18.0 185.0
    vertex 8.786796564403577 69.21320343559644 185.0
    vertex 15.000000000000023 73.98076211353317 185.0
  endloop
endfacet
facet normal -2.3332792027364996e-32 3.8858094546627215e-32 -1.0
  outer loop
    vertex 30.0 18.0 185.0
    vertex 15.000000000000023 73.98076211353317 185.0
    vertex 22.23542864692439 76.97777478867205 185.0
  endloop
endfacet
facet normal -2.3332792027364996e-32 3.8858094546627215e-32 -1.0
  outer loop
    vertex 30.0 18.0 185.0
    vertex 22.23542864692439 76.97777478867205 185.0
    vertex 30.000000000000007 78.0 185.0
  endloop
endfacet
facet normal -2.3332792027364996e-32 3.8858094546627215e-32 -1.0
  outer loop
    vertex 30.0 18.0 185.0
    vertex 30.000000000000007 78.0 185.0
    vertex 37.764571353075624 19.022225211327953 185.0
  endloop
endfacet
facet normal -2.3332792027364996e-32 3.8858094546627215e-32 -1.0
  outer loop
    vertex 37.764571353075624 19.022225211327953 185.0
    vertex 30.000000000000007 78.0 185.0
    vertex 37.764571353075645 76.97777478867205 185.0
  endloop
endfacet
facet normal -2.3332792027364996e-32 3.8858094546627215e-32 -1.0
  outer loop
    vertex 37.764571353075624 19.022225211327953 185.0
    vertex 37.764571353075645 76.97777478867205 185.0
    vertex 45.0 22.01923788646684 185.0
  endloop
endfacet
facet normal -2.3332792027364996e-32 3.8858094546627215e-32 -1.0
  outer loop
    vertex 45.0 22.01923788646684 185.0
    vertex 37.764571353075645 76.97777478867205 185.0
    vertex 45.00000000000002 73.98076211353316 185.0
  endloop
endfacet
facet normal -2.3332792027364996e-32 3.8858094546627215e-32 -1.0
  outer loop
    vertex 45.0 22.01923788646684 185.0
    vertex 45.00000000000002 73.98076211353316 185.0
    vertex 51.21320343559643 26.786796564403573 185.0
  endloop
endfacet
facet normal -2.3332792027364996e-32 3.8858094546627215e-32 -1.0
  outer loop
    vertex 51.21320343559643 26.786796564403573 185.0
    vertex 45.00000000000002 73.98076211353316 185.0
    vertex 51.21320343559645 69.21320343559641 185.0
  endloop
endfacet
facet normal -2.3332792027364996e-32 3.8858094546627215e-32 -1.0
  outer loop
    vertex 51.21320343559643 26.786796564403573 185.0
    vertex 51.21320343559645 69.21320343559641 185.0
    vertex 55.98076211353315 32.99999999999999 185.0
  endloop
endfacet
facet normal -2.3332792027364996e-32 3.8858094546627215e-32 -1.0
  outer loop
    vertex 55.98076211353315 32.99999999999999 185.0
    vertex 51.21320343559645 69.21320343559641 185.0
    vertex 55.98076211353317 63.0 185.0
  endloop
endfacet
facet normal -2.3332792027364996e-32 3.8858094546627215e-32 -1.0
  outer loop
    vertex 55.98076211353315 32.99999999999999 185.0
    vertex 55.98076211353317 63.0 185.0
    vertex 58.97777478867205 40.23542864692437 185.0
  endloop
endfacet
facet normal -2.3332792027364996e-32 3.8858094546627215e-32 -1.0
  outer loop
    vertex 58.97777478867205 40.23542864692437 185.0
    vertex 55.98076211353317 63.0 185.0
    vertex 58.977774788672065 55.76457135307562 185.0
  endloop
endfacet
facet normal -2.3332792027364996e-32 3.8858094546627215e-32 -1.0
  outer loop
    vertex 58.97777478867205 40.23542864692437 185.0
    vertex 58.977774788672065 55.76457135307562 185.0
    vertex 60.0 48.0 185.0
  endloop
endfacet
facet normal -0.13052619222005177 0.9914448613738105 -0.0
  outer loop
    vertex 30.0 18.0 185.0
    vertex 37.764571353075624 19.022225211327953 0.0
    vertex 30.0 18.0 0.0
  endloop
endfacet
facet normal -0.13052619222005177 0.9914448613738105 -0.0
  outer loop
    vertex 37.764571353075624 19.022225211327953 0.0
    vertex 30.0 18.0 185.0
    vertex 37.764571353075624 19.022225211327953 185.0
  endloop
endfacet
facet normal 1.0 -0.0 -0.0
  outer loop
    vertex 0.0 48.0 0.0
    vertex 0.0 18.0 185.0
    vertex 0.0 18.0 0.0
  endloop
endfacet
facet normal 1.0 -0.0 -0.0
  outer loop
    vertex 0.0 18.0 185.0
    vertex 0.0 48.0 0.0
    vertex 0.0 48.0 185.0
  endloop
endfacet
facet normal 0.9914448613738105 -0.13052619222005202 -0.0
  outer loop
    vertex 1.0222252113279582 55.76457135307565 0.0
    vertex 0.0 48.0 185.0
    vertex 0.0 48.0 0.0
  endloop
endfacet
facet normal 0.9914448613738105 -0.13052619222005202 -0.0
  outer loop
    vertex 0.0 48.0 185.0
    vertex 1.0222252113279582 55.76457135307565 0.0
    vertex 1.0222252113279582 55.76457135307565 185.0
  endloop
endfacet
facet normal 0.9238795325112865 -0.38268343236509034 -0.0
  outer loop
    vertex 4.019237886466849 63.00000000000002 0.0
    vertex 1.0222252113279582 55.76457135307565 185.0
    vertex 1.0222252113279582 55.76457135307565 0.0
  endloop
endfacet
facet normal 0.9238795325112865 -0.38268343236509034 -0.0
  outer loop
    vertex 1.0222252113279582 55.76457135307565 185.0
    vertex 4.019237886466849 63.00000000000002 0.0
    vertex 4.019237886466849 63.00000000000002 185.0
  endloop
endfacet
facet normal 0.7933533402912352 -0.6087614290087208 -0.0
  outer loop
    vertex 8.786796564403577 69.21320343559644 0.0
    vertex 4.019237886466849 63.00000000000002 185.0
    vertex 4.019237886466849 63.00000000000002 0.0
  endloop
endfacet
facet normal 0.7933533402912352 -0.6087614290087208 -0.0
  outer loop
    vertex 4.019237886466849 63.00000000000002 185.0
    vertex 8.786796564403577 69.21320343559644 0.0
    vertex 8.786796564403577 69.21320343559644 185.0
  endloop
endfacet
facet normal 0.60876142900872 -0.7933533402912358 -0.0
  outer loop
    vertex 15.000000000000023 73.98076211353317 185.0
    vertex 8.786796564403577 69.21320343559644 0.0
    vertex 15.000000000000023 73.98076211353317 0.0
  endloop
endfacet
facet normal 0.60876142900872 -0.7933533402912358 -0.0
  outer loop
    vertex 8.786796564403577 69.21320343559644 0.0
    vertex 15.000000000000023 73.98076211353317 185.0
    vertex 8.786796564403577 69.21320343559644 185.0
  endloop
endfacet
facet normal 0.3826834323650885 -0.9238795325112873 -0.0
  outer loop
    vertex 22.23542864692439 76.97777478867205 185.0
    vertex 15.000000000000023 73.98076211353317 0.0
    vertex 22.23542864692439 76.97777478867205 0.0
  endloop
endfacet
facet normal 0.3826834323650885 -0.9238795325112873 -0.0
  outer loop
    vertex 15.000000000000023 73.98076211353317 0.0
    vertex 22.23542864692439 76.97777478867205 185.0
    vertex 15.000000000000023 73.98076211353317 185.0
  endloop
endfacet
facet normal 0.13052619222005188 -0.9914448613738104 -0.0
  outer loop
    vertex 30.000000000000007 78.0 185.0
    vertex 22.23542864692439 76.97777478867205 0.0
    vertex 30.000000000000007 78.0 0.0
  endloop
endfacet
facet normal 0.13052619222005188 -0.9914448613738104 -0.0
  outer loop
    vertex 22.23542864692439 76.97777478867205 0.0
    vertex 30.000000000000007 78.0 185.0
    vertex 22.23542864692439 76.97777478867205 185.0
  endloop
endfacet
facet normal -0.1305261922200515 -0.9914448613738105 -0.0
  outer loop
    vertex 37.764571353075645 76.97777478867205 185.0
    vertex 30.000000000000007 78.0 0.0
    vertex 37.764571353075645 76.97777478867205 0.0
  endloop
endfacet
facet normal -0.1305261922200515 -0.9914448613738105 -0.0
  outer loop
    vertex 30.000000000000007 78.0 0.0
    vertex 37.764571353075645 76.97777478867205 185.0
    vertex 30.000000000000007 78.0 185.0
  endloop
endfacet
facet normal -0.38268343236509067 -0.9238795325112864 -0.0
  outer loop
    vertex 45.00000000000002 73.98076211353316 185.0
    vertex 37.764571353075645 76.97777478867205 0.0
    vertex 45.00000000000002 73.98076211353316 0.0
  endloop
endfacet
facet normal -0.38268343236509067 -0.9238795325112864 -0.0
  outer loop
    vertex 37.764571353075645 76.97777478867205 0.0
    vertex 45.00000000000002 73.98076211353316 185.0
    vertex 37.764571353075645 76.97777478867205 185.0
  endloop
endfacet
facet normal -0.6087614290087212 -0.7933533402912347 -0.0
  outer loop
    vertex 51.21320343559645 69.21320343559641 185.0
    vertex 45.00000000000002 73.98076211353316 0.0
    vertex 51.21320343559645 69.21320343559641 0.0
  endloop
endfacet
facet normal -0.6087614290087212 -0.7933533402912347 -0.0
  outer loop
    vertex 45.00000000000002 73.98076211353316 0.0
    vertex 51.21320343559645 69.21320343559641 185.0
    vertex 45.00000000000002 73.98076211353316 185.0
  endloop
endfacet
facet normal -0.7933533402912357 -0.6087614290087201 -0.0
  outer loop
    vertex 51.21320343559645 69.21320343559641 185.0
    vertex 55.98076211353317 63.0 0.0
    vertex 55.98076211353317 63.0 185.0
  endloop
endfacet
facet normal -0.7933533402912357 -0.6087614290087201 -0.0
  outer loop
    vertex 55.98076211353317 63.0 0.0
    vertex 51.21320343559645 69.21320343559641 185.0
    vertex 51.21320343559645 69.21320343559641 0.0
  endloop
endfacet
facet normal -0.9238795325112865 -0.38268343236509045 -0.0
  outer loop
    vertex 55.98076211353317 63.0 185.0
    vertex 58.977774788672065 55.76457135307562 0.0
    vertex 58.977774788672065 55.76457135307562 185.0
  endloop
endfacet
facet normal -0.9238795325112865 -0.38268343236509045 -0.0
  outer loop
    vertex 58.977774788672065 55.76457135307562 0.0
    vertex 55.98076211353317 63.0 185.0
    vertex 55.98076211353317 63.0 0.0
  endloop
endfacet
facet normal -0.9914448613738106 -0.13052619222005035 -0.0
  outer loop
    vertex 58.977774788672065 55.76457135307562 185.0
    vertex 60.0 48.0 0.0
    vertex 60.0 48.0 185.0
  endloop
endfacet
facet normal -0.9914448613738106 -0.13052619222005035 -0.0
  outer loop
    vertex 60.0 48.0 0.0
    vertex 58.977774788672065 55.76457135307562 185.0
    vertex 58.977774788672065 55.76457135307562 0.0
  endloop
endfacet
facet normal -0.9914448613738104 0.13052619222005168 -0.0
  outer loop
    vertex 60.0 48.0 185.0
    vertex 58.97777478867205 40.23542864692437 0.0
    vertex 58.97777478867205 40.23542864692437 185.0
  endloop
endfacet
facet normal -0.9914448613738104 0.13052619222005168 -0.0
  outer loop
    vertex 58.97777478867205 40.23542864692437 0.0
    vertex 60.0 48.0 185.0
    vertex 60.0 48.0 0.0
  endloop
endfacet
facet normal -0.9238795325112865 0.38268343236509045 -0.0
  outer loop
    vertex 58.97777478867205 40.23542864692437 185.0
    vertex 55.98076211353315 32.99999999999999 0.0
    vertex 55.98076211353315 32.99999999999999 185.0
  endloop
endfacet
facet normal -0.9238795325112865 0.38268343236509045 -0.0
  outer loop
    vertex 55.98076211353315 32.99999999999999 0.0
    vertex 58.97777478867205 40.23542864692437 185.0
    vertex 58.97777478867205 40.23542864692437 0.0
  endloop
endfacet
facet normal -0.7933533402912349 0.608761429008721 -0.0
  outer loop
    vertex 55.98076211353315 32.99999999999999 185.0
    vertex 51.21320343559643 26.786796564403573 0.0
    vertex 51.21320343559643 26.786796564403573 185.0
  endloop
endfacet
facet normal -0.7933533402912349 0.608761429008721 -0.0
  outer loop
    vertex 51.21320343559643 26.786796564403573 0.0
    vertex 55.98076211353315 32.99999999999999 185.0
    vertex 55.98076211353315 32.99999999999999 0.0
  endloop
endfacet
facet normal -0.6087614290087208 0.7933533402912352 -0.0
  outer loop
    vertex 45.0 22.01923788646684 185.0
    vertex 51.21320343559643 26.786796564403573 0.0
    vertex 45.0 22.01923788646684 0.0
  endloop
endfacet
facet normal -0.6087614290087208 0.7933533402912352 -0.0
  outer loop
    vertex 51.21320343559643 26.786796564403573 0.0
    vertex 45.0 22.01923788646684 185.0
    vertex 51.21320343559643 26.786796564403573 185.0
  endloop
endfacet
facet normal -0.38268343236508945 0.9238795325112868 -0.0
  outer loop
    vertex 37.764571353075624 19.022225211327953 185.0
    vertex 45.0 22.01923788646684 0.0
    vertex 37.764571353075624 19.022225211327953 0.0
  endloop
endfacet
facet normal -0.38268343236508945 0.9238795325112868 -0.0
  outer loop
    vertex 45.0 22.01923788646684 0.0
    vertex 37.764571353075624 19.022225211327953 185.0
    vertex 45.0 22.01923788646684 185.0
  endloop
endfacet
facet normal 0.0 0.0 -1.0
  outer loop
    vertex 30.0 18.0 185.0
    vertex 0.0 -3.524958103184872e-15 185.0
    vertex 0.0 18.0 185.0
  endloop
endfacet
facet normal 0.0 0.0 -1.0
  outer loop
    vertex 0.0 -3.524958103184872e-15 185.0
    vertex 30.0 18.0 185.0
    vertex 90.0 -3.524958103184872e-15 185.0
  endloop
endfacet
facet normal 0.0 0.0 -1.0
  outer loop
    vertex 90.0 -3.524958103184872e-15 185.0
    vertex 30.0 18.0 185.0
    vertex 90.0 18.0 185.0
  endloop
endfacet
facet normal 1.0 -0.0 -0.0
  outer loop
    vertex 0.0 15.999999999999996 0.0
    vertex 0.0 -3.524958103184872e-15 185.0
    vertex 0.0 -3.524958103184872e-15 0.0
  endloop
endfacet
facet normal 1.0 -0.0 -0.0
  outer loop
    vertex 0.0 -3.524958103184872e-15 185.0
    vertex 0.0 15.999999999999996 0.0
    vertex 0.0 18.0 185.0
  endloop
endfacet
facet normal 1.0 -0.0 -0.0
  outer loop
    vertex 0.0 18.0 185.0
    vertex 0.0 15.999999999999996 0.0
    vertex 0.0 18.0 0.0
  endloop
endfacet
facet normal 0.0 -1.0 0.0
  outer loop
    vertex 90.0 18.0 185.0
    vertex 30.0 18.0 0.0
    vertex 90.0 18.0 0.0
  endloop
endfacet
facet normal 0.0 -1.0 0.0
  outer loop
    vertex 30.0 18.0 0.0
    vertex 90.0 18.0 185.0
    vertex 30.0 18.0 185.0
  endloop
endfacet
facet normal -1.0 0.0 0.0
  outer loop
    vertex 90.0 18.0 185.0
    vertex 90.0 -3.524958103184872e-15 0.0
    vertex 90.0 -3.524958103184872e-15 185.0
  endloop
endfacet
facet normal -1.0 0.0 0.0
  outer loop
    vertex 90.0 -3.524958103184872e-15 0.0
    vertex 90.0 18.0 185.0
    vertex 90.0 15.999999999999996 0.0
  endloop
endfacet
facet normal -1.0 0.0 0.0
  outer loop
    vertex 90.0 15.999999999999996 0.0
    vertex 90.0 18.0 185.0
    vertex 90.0 18.0 0.0
  endloop
endfacet
facet normal -0.0 1.0 -0.0
  outer loop
    vertex 1.9999999999999998 15.999999999999996 183.0
    vertex 88.00000000000001 15.999999999999996 1.9999999999999998
    vertex 1.9999999999999998 15.999999999999996 1.9999999999999998
  endloop
endfacet
facet normal -0.0 1.0 -0.0
  outer loop
    vertex 88.00000000000001 15.999999999999996 1.9999999999999998
    vertex 1.9999999999999998 15.999999999999996 183.0
    vertex 88.00000000000001 15.999999999999996 183.0
  endloop
endfacet
facet normal -0.0 -0.0 1.0
  outer loop
    vertex 90.0 -3.524958103184872e-15 0.0
    vertex 0.0 15.999999999999996 0.0
    vertex 0.0 -3.524958103184872e-15 0.0
  endloop
endfacet
facet normal -0.0 -0.0 1.0
  outer loop
    vertex 0.0 15.999999999999996 0.0
    vertex 90.0 -3.524958103184872e-15 0.0
    vertex 90.0 15.999999999999996 0.0
  endloop
endfacet
facet normal -1.0 0.0 0.0
  outer loop
    vertex 1.9999999999999998 15.999999999999996 183.0
    vertex 1.9999999999999998 1.9999999999999962 173.0
    vertex 1.9999999999999998 1.9999999999999962 183.0
  endloop
endfacet
facet normal -1.0 0.0 0.0
  outer loop
    vertex 1.9999999999999998 1.9999999999999962 173.0
    vertex 1.9999999999999998 15.999999999999996 183.0
    vertex 1.9999999999999998 1.9999999999999962 30.0
  endloop
endfacet
facet normal -1.0 0.0 0.0
  outer loop
    vertex 1.9999999999999998 1.9999999999999962 30.0
    vertex 1.9999999999999998 15.999999999999996 183.0
    vertex 1.9999999999999998 1.9999999999999962 1.9999999999999998
  endloop
endfacet
facet normal -1.0 0.0 0.0
  outer loop
    vertex 1.9999999999999998 1.9999999999999962 1.9999999999999998
    vertex 1.9999999999999998 15.999999999999996 183.0
    vertex 1.9999999999999998 15.999999999999996 1.9999999999999998
  endloop
endfacet
facet normal 0.0 0.0 -1.0
  outer loop
    vertex 88.00000000000001 15.999999999999996 1.9999999999999998
    vertex 1.9999999999999998 1.9999999999999962 1.9999999999999998
    vertex 1.9999999999999998 15.999999999999996 1.9999999999999998
  endloop
endfacet
facet normal 0.0 0.0 -1.0
  outer loop
    vertex 1.9999999999999998 1.9999999999999962 1.9999999999999998
    vertex 88.00000000000001 15.999999999999996 1.9999999999999998
    vertex 88.0 1.9999999999999962 1.9999999999999998
  endloop
endfacet
facet normal 0.0 -1.0 0.0
  outer loop
    vertex 88.0 1.9999999999999962 1.9999999999999998
    vertex 77.99999999999999 1.9999999999999962 30.0
    vertex 1.9999999999999998 1.9999999999999962 1.9999999999999998
  endloop
endfacet
facet normal 0.0 -1.0 0.0
  outer loop
    vertex 77.99999999999999 1.9999999999999962 30.0
    vertex 88.0 1.9999999999999962 1.9999999999999998
    vertex 88.0 1.9999999999999962 173.0
  endloop
endfacet
facet normal 0.0 -1.0 0.0
  outer loop
    vertex 77.99999999999999 1.9999999999999962 30.0
    vertex 88.0 1.9999999999999962 173.0
    vertex 77.99999999999999 1.9999999999999962 173.0
  endloop
endfacet
facet normal 0.0 -1.0 0.0
  outer loop
    vertex 77.99999999999999 1.9999999999999962 30.0
    vertex 1.9999999999999998 1.9999999999999962 30.0
    vertex 1.9999999999999998 1.9999999999999962 1.9999999999999998
  endloop
endfacet
facet normal 0.0 -1.0 0.0
  outer loop
    vertex 1.9999999999999998 1.9999999999999962 30.0
    vertex 77.99999999999999 1.9999999999999962 30.0
    vertex 9.999999999999998 1.9999999999999962 30.0
  endloop
endfacet
facet normal 0.0 0.0 -1.0
  outer loop
    vertex 77.99999999999999 1.9999999999999962 30.0
    vertex 9.999999999999998 -3.524958103184872e-15 30.0
    vertex 9.999999999999998 1.9999999999999962 30.0
  endloop
endfacet
facet normal 0.0 0.0 -1.0
  outer loop
    vertex 9.999999999999998 -3.524958103184872e-15 30.0
    vertex 77.99999999999999 1.9999999999999962 30.0
    vertex 77.99999999999999 -3.524958103184872e-15 30.0
  endloop
endfacet
facet normal -0.0 1.0 -0.0
  outer loop
    vertex 0.0 -3.524958103184872e-15 0.0
    vertex 9.999999999999998 -3.524958103184872e-15 30.0
    vertex 90.0 -3.524958103184872e-15 0.0
  endloop
endfacet
facet normal -0.0 1.0 -0.0
  outer loop
    vertex 9.999999999999998 -3.524958103184872e-15 30.0
    vertex 0.0 -3.524958103184872e-15 0.0
    vertex 0.0 -3.524958103184872e-15 185.0
  endloop
endfacet
facet normal -0.0 1.0 -0.0
  outer loop
    vertex 9.999999999999998 -3.524958103184872e-15 30.0
    vertex 0.0 -3.524958103184872e-15 185.0
    vertex 9.999999999999998 -3.524958103184872e-15 173.0
  endloop
endfacet
facet normal -0.0 1.0 -0.0
  outer loop
    vertex 9.999999999999998 -3.524958103184872e-15 173.0
    vertex 0.0 -3.524958103184872e-15 185.0
    vertex 77.99999999999999 -3.524958103184872e-15 173.0
  endloop
endfacet
facet normal -0.0 1.0 -0.0
  outer loop
    vertex 90.0 -3.524958103184872e-15 0.0
    vertex 77.99999999999999 -3.524958103184872e-15 30.0
    vertex 90.0 -3.524958103184872e-15 185.0
  endloop
endfacet
facet normal -0.0 1.0 -0.0
  outer loop
    vertex 77.99999999999999 -3.524958103184872e-15 30.0
    vertex 90.0 -3.524958103184872e-15 0.0
    vertex 9.999999999999998 -3.524958103184872e-15 30.0
  endloop
endfacet
facet normal -0.0 1.0 -0.0
  outer loop
    vertex 90.0 -3.524958103184872e-15 185.0
    vertex 77.99999999999999 -3.524958103184872e-15 30.0
    vertex 77.99999999999999 -3.524958103184872e-15 173.0
  endloop
endfacet
facet normal -0.0 1.0 -0.0
  outer loop
    vertex 90.0 -3.524958103184872e-15 185.0
    vertex 77.99999999999999 -3.524958103184872e-15 173.0
    vertex 0.0 -3.524958103184872e-15 185.0
  endloop
endfacet
facet normal -0.0 -0.0 1.0
  outer loop
    vertex 88.0 1.9999999999999962 183.0
    vertex 1.9999999999999998 15.999999999999996 183.0
    vertex 1.9999999999999998 1.9999999999999962 183.0
  endloop
endfacet
facet normal -0.0 -0.0 1.0
  outer loop
    vertex 1.9999999999999998 15.999999999999996 183.0
    vertex 88.0 1.9999999999999962 183.0
    vertex 88.00000000000001 15.999999999999996 183.0
  endloop
endfacet
facet normal 1.0 -8.057047092993993e-16 -1.17650726868687e-33
  outer loop
    vertex 88.00000000000001 15.999999999999996 1.9999999999999998
    vertex 88.0 1.9999999999999962 173.0
    vertex 88.0 1.9999999999999962 1.9999999999999998
  endloop
endfacet
facet normal 1.0 -8.057047092993993e-16 -1.17650726868687e-33
  outer loop
    vertex 88.0 1.9999999999999962 173.0
    vertex 88.00000000000001 15.999999999999996 1.9999999999999998
    vertex 88.0 1.9999999999999962 183.0
  endloop
endfacet
facet normal 1.0 -8.057047092993993e-16 -1.17650726868687e-33
  outer loop
    vertex 88.0 1.9999999999999962 183.0
    vertex 88.00000000000001 15.999999999999996 1.9999999999999998
    vertex 88.00000000000001 15.999999999999996 183.0
  endloop
endfacet
facet normal 0.0 -1.0 0.0
  outer loop
    vertex 88.0 1.9999999999999962 183.0
    vertex 77.99999999999999 1.9999999999999962 173.0
    vertex 88.0 1.9999999999999962 173.0
  endloop
endfacet
facet normal 0.0 -1.0 0.0
  outer loop
    vertex 77.99999999999999 1.9999999999999962 173.0
    vertex 88.0 1.9999999999999962 183.0
    vertex 9.999999999999998 1.9999999999999962 173.0
  endloop
endfacet
facet normal 0.0 -1.0 0.0
  outer loop
    vertex 9.999999999999998 1.9999999999999962 173.0
    vertex 88.0 1.9999999999999962 183.0
    vertex 1.9999999999999998 1.9999999999999962 173.0
  endloop
endfacet
facet normal 0.0 -1.0 0.0
  outer loop
    vertex 1.9999999999999998 1.9999999999999962 173.0
    vertex 88.0 1.9999999999999962 183.0
    vertex 1.9999999999999998 1.9999999999999962 183.0
  endloop
endfacet
facet normal -0.0 -0.0 1.0
  outer loop
    vertex 77.99999999999999 -3.524958103184872e-15 173.0
    vertex 9.999999999999998 1.9999999999999962 173.0
    vertex 9.999999999999998 -3.524958103184872e-15 173.0
  endloop
endfacet
facet normal -0.0 -0.0 1.0
  outer loop
    vertex 9.999999999999998 1.9999999999999962 173.0
    vertex 77.99999999999999 -3.524958103184872e-15 173.0
    vertex 77.99999999999999 1.9999999999999962 173.0
  endloop
endfacet
facet normal -1.0 0.0 0.0
  outer loop
    vertex 9.999999999999998 1.9999999999999962 173.0
    vertex 9.999999999999998 -3.524958103184872e-15 30.0
    vertex 9.999999999999998 -3.524958103184872e-15 173.0
  endloop
endfacet
facet normal -1.0 0.0 0.0
  outer loop
    vertex 9.999999999999998 -3.524958103184872e-15 30.0
    vertex 9.999999999999998 1.9999999999999962 173.0
    vertex 9.999999999999998 1.9999999999999962 30.0
  endloop
endfacet
facet normal -0.0 -1.0 -0.0
  outer loop
    vertex 9.999999999999998 1.9999999999999962 173.0
    vertex 1.9999999999999998 1.9999999999999962 30.0
    vertex 9.999999999999998 1.9999999999999962 30.0
  endloop
endfacet
facet normal -0.0 -1.0 -0.0
  outer loop
    vertex 1.9999999999999998 1.9999999999999962 30.0
    vertex 9.999999999999998 1.9999999999999962 173.0
    vertex 1.9999999999999998 1.9999999999999962 173.0
  endloop
endfacet
facet normal 1.0 -0.0 -0.0
  outer loop
    vertex 77.99999999999999 1.9999999999999962 30.0
    vertex 77.99999999999999 -3.524958103184872e-15 173.0
    vertex 77.99999999999999 -3.524958103184872e-15 30.0
  endloop
endfacet
facet normal 1.0 -0.0 -0.0
  outer loop
    vertex 77.99999999999999 -3.524958103184872e-15 173.0
    vertex 77.99999999999999 1.9999999999999962 30.0
    vertex 77.99999999999999 1.9999999999999962 173.0
  endloop
endfacet
facet normal -0.0 -0.0 1.0
  outer loop
    vertex 30.0 18.0 0.0
    vertex 0.0 48.0 0.0
    vertex 0.0 18.0 0.0
  endloop
endfacet
facet normal -0.0 -0.0 1.0
  outer loop
    vertex 0.0 48.0 0.0
    vertex 30.0 18.0 0.0
    vertex 1.0222252113279582 55.76457135307565 0.0
  endloop
endfacet
facet normal -0.0 -0.0 1.0
  outer loop
    vertex 1.0222252113279582 55.76457135307565 0.0
    vertex 30.0 18.0 0.0
    vertex 4.019237886466849 63.00000000000002 0.0
  endloop
endfacet
facet normal -0.0 -0.0 1.0
  outer loop
    vertex 4.019237886466849 63.00000000000002 0.0
    vertex 30.0 18.0 0.0
    vertex 8.786796564403577 69.21320343559644 0.0
  endloop
endfacet
facet normal -0.0 -0.0 1.0
  outer loop
    vertex 8.786796564403577 69.21320343559644 0.0
    vertex 30.0 18.0 0.0
    vertex 15.000000000000023 73.98076211353317 0.0
  endloop
endfacet
facet normal -0.0 -0.0 1.0
  outer loop
    vertex 15.000000000000023 73.98076211353317 0.0
    vertex 30.0 18.0 0.0
    vertex 22.23542864692439 76.97777478867205 0.0
  endloop
endfacet
facet normal -0.0 -0.0 1.0
  outer loop
    vertex 22.23542864692439 76.97777478867205 0.0
    vertex 30.0 18.0 0.0
    vertex 30.000000000000007 78.0 0.0
  endloop
endfacet
facet normal -0.0 -0.0 1.0
  outer loop
    vertex 30.000000000000007 78.0 0.0
    vertex 30.0 18.0 0.0
    vertex 37.764571353075624 19.022225211327953 0.0
  endloop
endfacet
facet normal -0.0 -0.0 1.0
  outer loop
    vertex 30.000000000000007 78.0 0.0
    vertex 37.764571353075624 19.022225211327953 0.0
    vertex 37.764571353075645 76.97777478867205 0.0
  endloop
endfacet
facet normal -0.0 -0.0 1.0
  outer loop
    vertex 37.764571353075645 76.97777478867205 0.0
    vertex 37.764571353075624 19.022225211327953 0.0
    vertex 45.0 22.01923788646684 0.0
  endloop
endfacet
facet normal -0.0 -0.0 1.0
  outer loop
    vertex 37.764571353075645 76.97777478867205 0.0
    vertex 45.0 22.01923788646684 0.0
    vertex 45.00000000000002 73.98076211353316 0.0
  endloop
endfacet
facet normal -0.0 -0.0 1.0
  outer loop
    vertex 45.00000000000002 73.98076211353316 0.0
    vertex 45.0 22.01923788646684 0.0
    vertex 51.21320343559643 26.786796564403573 0.0
  endloop
endfacet
facet normal -0.0 -0.0 1.0
  outer loop
    vertex 45.00000000000002 73.98076211353316 0.0
    vertex 51.21320343559643 26.786796564403573 0.0
    vertex 51.21320343559645 69.21320343559641 0.0
  endloop
endfacet
facet normal -0.0 -0.0 1.0
  outer loop
    vertex 51.21320343559645 69.21320343559641 0.0
    vertex 51.21320343559643 26.786796564403573 0.0
    vertex 55.98076211353315 32.99999999999999 0.0
  endloop
endfacet
facet normal -0.0 -0.0 1.0
  outer loop
    vertex 51.21320343559645 69.21320343559641 0.0
    vertex 55.98076211353315 32.99999999999999 0.0
    vertex 55.98076211353317 63.0 0.0
  endloop
endfacet
facet normal -0.0 -0.0 1.0
  outer loop
    vertex 55.98076211353317 63.0 0.0
    vertex 55.98076211353315 32.99999999999999 0.0
    vertex 58.97777478867205 40.23542864692437 0.0
  endloop
endfacet
facet normal -0.0 -0.0 1.0
  outer loop
    vertex 55.98076211353317 63.0 0.0
    vertex 58.97777478867205 40.23542864692437 0.0
    vertex 58.977774788672065 55.76457135307562 0.0
  endloop
endfacet
facet normal -0.0 -0.0 1.0
  outer loop
    vertex 58.977774788672065 55.76457135307562 0.0
    vertex 58.97777478867205 40.23542864692437 0.0
    vertex 60.0 48.0 0.0
  endloop
endfacet
facet normal -0.0 -0.0 1.0
  outer loop
    vertex 90.0 15.999999999999996 0.0
    vertex 0.0 18.0 0.0
    vertex 0.0 15.999999999999996 0.0
  endloop
endfacet
facet normal -0.0 -0.0 1.0
  outer loop
    vertex 0.0 18.0 0.0
    vertex 90.0 15.999999999999996 0.0
    vertex 30.0 18.0 0.0
  endloop
endfacet
facet normal -0.0 -0.0 1.0
  outer loop
    vertex 30.0 18.0 0.0
    vertex 90.0 15.999999999999996 0.0
    vertex 90.0 18.0 0.0
  endloop
endfacet
facet normal 0.0 -1.0 0.0
  outer loop
    vertex 30.0 18.0 185.0
    vertex 0.0 18.0 0.0
    vertex 30.0 18.0 0.0
  endloop
endfacet
facet normal 0.0 -1.0 0.0
  outer loop
    vertex 0.0 18.0 0.0
    vertex 30.0 18.0 185.0
    vertex 0.0 18.0 185.0
  endloop
endfacet
endsolid SidSucksBlackDicks
